<svg width="40" height="34" viewBox="0 0 40 34" fill="none" xmlns="http://www.w3.org/2000/svg">
<mask id="path-1-inside-1_359_109" fill="white">
<path d="M0 0H38C39.1046 0 40 0.895431 40 2V32C40 33.1046 39.1046 34 38 34H0V0Z"/>
</mask>
<path d="M0 0H38C39.1046 0 40 0.895431 40 2V32C40 33.1046 39.1046 34 38 34H0V0Z" fill="white"/>
<path d="M0 -1H38C39.6569 -1 41 0.343146 41 2H39C39 1.44772 38.5523 1 38 1H0V-1ZM41 32C41 33.6569 39.6569 35 38 35H0V33H38C38.5523 33 39 32.5523 39 32H41ZM0 34V0V34ZM38 -1C39.6569 -1 41 0.343146 41 2V32C41 33.6569 39.6569 35 38 35V33C38.5523 33 39 32.5523 39 32V2C39 1.44772 38.5523 1 38 1V-1Z" fill="#E9E9E9" mask="url(#path-1-inside-1_359_109)"/>
<path d="M21.1367 12.6055L17.0117 16.7305L16.7539 17L17.0117 17.2695L21.1367 21.3945L21.6758 20.8555L17.8203 17L21.6758 13.1445L21.1367 12.6055Z" fill="#3F3F3F"/>
</svg>
