<svg width="40" height="34" viewBox="0 0 40 34" fill="none" xmlns="http://www.w3.org/2000/svg">
<mask id="path-1-inside-1_272_466" fill="white">
<path d="M0 0H38C39.1046 0 40 0.895431 40 2V32C40 33.1046 39.1046 34 38 34H0V0Z"/>
</mask>
<path d="M0 0H38C39.1046 0 40 0.895431 40 2V32C40 33.1046 39.1046 34 38 34H0V0Z" fill="white"/>
<path d="M0 -1H38C39.6569 -1 41 0.343146 41 2H39C39 1.44772 38.5523 1 38 1H0V-1ZM41 32C41 33.6569 39.6569 35 38 35H0V33H38C38.5523 33 39 32.5523 39 32H41ZM0 34V0V34ZM38 -1C39.6569 -1 41 0.343146 41 2V32C41 33.6569 39.6569 35 38 35V33C38.5523 33 39 32.5523 39 32V2C39 1.44772 38.5523 1 38 1V-1Z" fill="#E9E9E9" mask="url(#path-1-inside-1_272_466)"/>
<path d="M18.8633 21.3945L22.9883 17.2695L23.2461 17L22.9883 16.7305L18.8633 12.6055L18.3242 13.1445L22.1797 17L18.3242 20.8555L18.8633 21.3945Z" fill="#3F3F3F"/>
</svg>
