<svg width="253" height="253" viewBox="0 0 253 253" fill="none" xmlns="http://www.w3.org/2000/svg">
<path d="M123.338 24.9998C113.712 24.9998 104.738 32.1549 100.884 42.0773L97.7213 50.2998H70.84V45.2398C70.84 42.4528 68.5669 40.1798 65.78 40.1798H30.36C27.573 40.1798 25.3 42.4528 25.3 45.2398V52.3554C10.8118 56.8026 0 69.8282 0 85.7198V191.98C0 211.488 15.9113 227.4 35.42 227.4H217.58C237.089 227.4 253 211.488 253 191.98V85.7198C253 66.2111 237.089 50.2998 217.58 50.2998H205.879L202.716 42.0773C198.862 32.1549 189.908 24.9998 180.262 24.9998H123.338ZM123.338 35.1198H180.262C184.137 35.1198 190.817 39.5077 193.229 45.7141L197.656 57.2573C198.427 59.1943 200.325 60.4395 202.4 60.4198H217.58C231.614 60.4198 242.88 71.6862 242.88 85.7198V191.98C242.88 206.013 231.614 217.28 217.58 217.28H35.42C21.3864 217.28 10.12 206.013 10.12 191.98V85.7198C10.12 73.1291 19.1924 62.7521 31.1506 60.736C33.5818 60.3605 35.3805 58.2851 35.42 55.8341V50.2998H60.72V55.3598C60.72 58.1467 62.993 60.4198 65.78 60.4198H101.2C103.275 60.4395 105.173 59.1943 105.944 57.2573L110.371 45.7141C112.783 39.5077 119.463 35.1198 123.338 35.1198ZM151.8 70.5398C115.55 70.5398 86.02 100.07 86.02 136.32C86.02 172.57 115.55 202.1 151.8 202.1C188.05 202.1 217.58 172.57 217.58 136.32C217.58 100.07 188.05 70.5398 151.8 70.5398ZM35.42 75.5998C29.8263 75.5998 25.3 80.1261 25.3 85.7198C25.3 91.3134 29.8263 95.8398 35.42 95.8398C41.0137 95.8398 45.54 91.3134 45.54 85.7198C45.54 80.1261 41.0137 75.5998 35.42 75.5998ZM151.8 80.6598C182.595 80.6598 207.46 105.525 207.46 136.32C207.46 167.115 182.595 191.98 151.8 191.98C121.005 191.98 96.14 167.115 96.14 136.32C96.14 105.525 121.005 80.6598 151.8 80.6598Z" fill="#939393"/>
</svg>
