<svg width="20" height="20" viewBox="0 0 20 20" fill="none" xmlns="http://www.w3.org/2000/svg">
<g clip-path="url(#clip0_901_17)">
<path d="M17.8127 6.875C17.8956 6.875 17.9751 6.84208 18.0337 6.78347C18.0923 6.72487 18.1252 6.64538 18.1252 6.5625C18.1252 6.47962 18.0923 6.40013 18.0337 6.34153C17.9751 6.28292 17.8956 6.25 17.8127 6.25H13.1252V1.5625C13.1252 1.47962 13.0923 1.40013 13.0337 1.34153C12.9751 1.28292 12.8956 1.25 12.8127 1.25C12.7299 1.25 12.6504 1.28292 12.5918 1.34153C12.5332 1.40013 12.5002 1.47962 12.5002 1.5625V6.25H6.87524V1.5625C6.87524 1.47962 6.84232 1.40013 6.78371 1.34153C6.72511 1.28292 6.64562 1.25 6.56274 1.25C6.47986 1.25 6.40038 1.28292 6.34177 1.34153C6.28317 1.40013 6.25024 1.47962 6.25024 1.5625V6.25H1.56274C1.47986 6.25 1.40038 6.28292 1.34177 6.34153C1.28317 6.40013 1.25024 6.47962 1.25024 6.5625C1.25024 6.64538 1.28317 6.72487 1.34177 6.78347C1.40038 6.84208 1.47986 6.875 1.56274 6.875H6.25024V12.5H1.56274C1.47986 12.5 1.40038 12.5329 1.34177 12.5915C1.28317 12.6501 1.25024 12.7296 1.25024 12.8125C1.25024 12.8954 1.28317 12.9749 1.34177 13.0335C1.40038 13.0921 1.47986 13.125 1.56274 13.125H6.25024V18.4375C6.25024 18.5204 6.28317 18.5999 6.34177 18.6585C6.40038 18.7171 6.47986 18.75 6.56274 18.75C6.64562 18.75 6.72511 18.7171 6.78371 18.6585C6.84232 18.5999 6.87524 18.5204 6.87524 18.4375V13.125H12.5002V18.4375C12.5002 18.5204 12.5332 18.5999 12.5918 18.6585C12.6504 18.7171 12.7299 18.75 12.8127 18.75C12.8956 18.75 12.9751 18.7171 13.0337 18.6585C13.0923 18.5999 13.1252 18.5204 13.1252 18.4375V13.125H17.8127C17.8956 13.125 17.9751 13.0921 18.0337 13.0335C18.0923 12.9749 18.1252 12.8954 18.1252 12.8125C18.1252 12.7296 18.0923 12.6501 18.0337 12.5915C17.9751 12.5329 17.8956 12.5 17.8127 12.5H13.1252V6.875H17.8127ZM12.5002 12.5H6.87524V6.875H12.5002V12.5Z" fill="black"/>
<path d="M19.375 19.0625V0.9375C19.375 0.420625 18.9544 0 18.4375 0H0.9375C0.420625 0 0 0.420625 0 0.9375V19.0625C0 19.5794 0.420625 20 0.9375 20H18.4375C18.9544 20 19.375 19.5794 19.375 19.0625ZM0.625 19.0625V0.9375C0.625 0.85462 0.657924 0.775134 0.716529 0.716529C0.775134 0.657924 0.85462 0.625 0.9375 0.625H18.4375C18.5204 0.625 18.5999 0.657924 18.6585 0.716529C18.7171 0.775134 18.75 0.85462 18.75 0.9375V19.0625C18.75 19.1454 18.7171 19.2249 18.6585 19.2835C18.5999 19.3421 18.5204 19.375 18.4375 19.375H0.9375C0.85462 19.375 0.775134 19.3421 0.716529 19.2835C0.657924 19.2249 0.625 19.1454 0.625 19.0625Z" fill="black"/>
</g>
<defs>
<clipPath id="clip0_901_17">
<rect width="19.375" height="20" fill="white"/>
</clipPath>
</defs>
</svg>
