<svg width="14" height="26" viewBox="0 0 14 26" fill="none" xmlns="http://www.w3.org/2000/svg">
<g clip-path="url(#clip0_1160_45)">
<path d="M1.09143 2.60876C0.978659 2.48942 0.890497 2.34903 0.831978 2.19562C0.773458 2.04221 0.745728 1.87878 0.750371 1.71465C0.755014 1.55052 0.791939 1.38892 0.859037 1.23906C0.926136 1.0892 1.02209 0.954029 1.14143 0.841256C1.26077 0.728484 1.40115 0.640321 1.55456 0.581801C1.70798 0.523282 1.87141 0.495552 2.03554 0.500195C2.19967 0.504838 2.36127 0.541763 2.51113 0.608861C2.66099 0.675959 2.79616 0.771917 2.90893 0.891256L13.5339 12.1413C13.7534 12.3733 13.8756 12.6806 13.8756 13C13.8756 13.3194 13.7534 13.6267 13.5339 13.8588L2.90893 25.11C2.7969 25.232 2.66176 25.3304 2.51135 25.3997C2.36094 25.469 2.19827 25.5077 2.03278 25.5136C1.86728 25.5195 1.70227 25.4924 1.54732 25.434C1.39238 25.3755 1.25059 25.2869 1.13019 25.1732C1.00979 25.0595 0.913175 24.923 0.845967 24.7717C0.778759 24.6203 0.742294 24.4571 0.738688 24.2916C0.735083 24.126 0.764409 23.9614 0.824964 23.8073C0.885519 23.6531 0.976095 23.5126 1.09143 23.3938L10.9064 13L1.09143 2.60876Z" fill="#4E4E4E"/>
</g>
<defs>
<clipPath id="clip0_1160_45">
<rect width="14" height="26" fill="white" transform="matrix(-1 0 0 1 14 0)"/>
</clipPath>
</defs>
</svg>
