<svg width="14" height="26" viewBox="0 0 14 26" fill="none" xmlns="http://www.w3.org/2000/svg">
<g clip-path="url(#clip0_1161_47)">
<path d="M12.9086 2.60876C13.0213 2.48942 13.1095 2.34903 13.168 2.19562C13.2265 2.04221 13.2543 1.87878 13.2496 1.71465C13.245 1.55052 13.2081 1.38892 13.141 1.23906C13.0739 1.0892 12.9779 0.954029 12.8586 0.841256C12.7392 0.728484 12.5988 0.640321 12.4454 0.581801C12.292 0.523282 12.1286 0.495552 11.9645 0.500195C11.8003 0.504838 11.6387 0.541763 11.4889 0.608861C11.339 0.675959 11.2038 0.771917 11.0911 0.891256L0.466068 12.1413C0.246647 12.3733 0.12439 12.6806 0.12439 13C0.12439 13.3194 0.246647 13.6267 0.466068 13.8588L11.0911 25.11C11.2031 25.232 11.3382 25.3304 11.4886 25.3997C11.6391 25.469 11.8017 25.5077 11.9672 25.5136C12.1327 25.5195 12.2977 25.4924 12.4527 25.434C12.6076 25.3755 12.7494 25.2869 12.8698 25.1732C12.9902 25.0595 13.0868 24.923 13.154 24.7717C13.2212 24.6203 13.2577 24.4571 13.2613 24.2916C13.2649 24.126 13.2356 23.9614 13.175 23.8073C13.1145 23.6531 13.0239 23.5126 12.9086 23.3938L3.09357 13L12.9086 2.60876Z" fill="#4E4E4E"/>
</g>
<defs>
<clipPath id="clip0_1161_47">
<rect width="14" height="26" fill="white"/>
</clipPath>
</defs>
</svg>
