<svg width="43" height="20" viewBox="0 0 43 20" fill="none" xmlns="http://www.w3.org/2000/svg">
<path d="M4.29593 10L12.7879 2.7275C12.8578 2.6689 12.9131 2.59932 12.9506 2.52279C12.988 2.44626 13.0068 2.36431 13.006 2.28167C13.0052 2.19904 12.9847 2.11735 12.9458 2.04136C12.9068 1.96536 12.8501 1.89655 12.7791 1.83892C12.708 1.78129 12.6239 1.73598 12.5317 1.70561C12.4395 1.67523 12.3409 1.66041 12.2418 1.66198C12.1426 1.66355 12.0448 1.6815 11.954 1.71477C11.8633 1.74805 11.7813 1.79599 11.7129 1.85584L2.71293 9.56417C2.57671 9.68085 2.50049 9.83721 2.50049 10C2.50049 10.1628 2.57671 10.3192 2.71293 10.4358L11.7129 18.1442C11.7813 18.204 11.8633 18.252 11.954 18.2852C12.0448 18.3185 12.1426 18.3365 12.2418 18.338C12.3409 18.3396 12.4395 18.3248 12.5317 18.2944C12.6239 18.264 12.708 18.2187 12.7791 18.1611C12.8501 18.1035 12.9068 18.0346 12.9458 17.9587C12.9847 17.8827 13.0052 17.801 13.006 17.7183C13.0068 17.6357 12.988 17.5537 12.9506 17.4772C12.9131 17.4007 12.8578 17.3311 12.7879 17.2725L4.29593 10Z" fill="black"/>
<circle cx="21.5" cy="10" r="4" stroke="black"/>
<path d="M38.7041 10L30.2121 2.7275C30.1422 2.6689 30.0869 2.59932 30.0494 2.52279C30.012 2.44626 29.9932 2.36431 29.994 2.28167C29.9948 2.19904 30.0153 2.11735 30.0542 2.04136C30.0932 1.96536 30.1499 1.89655 30.2209 1.83892C30.292 1.78129 30.3761 1.73598 30.4683 1.70561C30.5605 1.67523 30.6591 1.66041 30.7582 1.66198C30.8574 1.66355 30.9552 1.6815 31.046 1.71477C31.1367 1.74805 31.2187 1.79599 31.2871 1.85584L40.2871 9.56417C40.4233 9.68085 40.4995 9.83721 40.4995 10C40.4995 10.1628 40.4233 10.3192 40.2871 10.4358L31.2871 18.1442C31.2187 18.204 31.1367 18.252 31.046 18.2852C30.9552 18.3185 30.8574 18.3365 30.7582 18.338C30.6591 18.3396 30.5605 18.3248 30.4683 18.2944C30.3761 18.264 30.292 18.2187 30.2209 18.1611C30.1499 18.1035 30.0932 18.0346 30.0542 17.9587C30.0153 17.8827 29.9948 17.801 29.994 17.7183C29.9932 17.6357 30.012 17.5537 30.0494 17.4772C30.0869 17.4007 30.1422 17.3311 30.2121 17.2725L38.7041 10Z" fill="black"/>
</svg>
